<svg width="16" height="16" viewBox="0 0 16 16" fill="none" xmlns="http://www.w3.org/2000/svg">
<path d="M0.473529 2.73247C-0.151178 2.10776 -0.151178 1.09324 0.473529 0.46853C1.09824 -0.156177 2.11276 -0.156177 2.73747 0.46853L8 5.73606L13.2675 0.473528C13.8922 -0.151179 14.9068 -0.151179 15.5315 0.473528C16.1562 1.09824 16.1562 2.11276 15.5315 2.73747L10.2639 8L15.5265 13.2675C16.1512 13.8922 16.1512 14.9068 15.5265 15.5315C14.9018 16.1562 13.8872 16.1562 13.2625 15.5315L8 10.2639L2.73247 15.5265C2.10776 16.1512 1.09324 16.1512 0.468531 15.5265C-0.156176 14.9018 -0.156176 13.8872 0.468531 13.2625L5.73606 8L0.473529 2.73247Z" fill="#333333"/>
</svg>
